<svg width="141" height="27" viewBox="0 0 141 27" fill="none" xmlns="http://www.w3.org/2000/svg">
<path d="M17.576 3.23C18.1133 3.23 18.5467 3.42067 18.876 3.802C19.2053 4.166 19.37 4.61667 19.37 5.154C19.37 5.50067 19.292 5.908 19.136 6.376C18.98 6.82667 18.8153 7.19933 18.642 7.494C18.5727 7.546 18.4947 7.55467 18.408 7.52C18.3387 7.48533 18.3127 7.42467 18.33 7.338C18.434 7.026 18.4773 6.714 18.46 6.402C18.4427 6.09 18.356 5.804 18.2 5.544C18.044 5.284 17.8013 5.076 17.472 4.92C17.16 4.74667 16.7613 4.66 16.276 4.66C15.6173 4.66 15.0453 4.78133 14.56 5.024C14.092 5.24933 13.6587 5.65667 13.26 6.246C12.8613 6.818 12.4887 7.58933 12.142 8.56C11.7953 9.53067 11.44 10.744 11.076 12.2C10.4693 14.5227 9.62867 16.3167 8.554 17.582C9.334 17.8767 10.1487 18.1453 10.998 18.388C11.8647 18.6133 12.818 18.726 13.858 18.726C14.7247 18.726 15.3833 18.57 15.834 18.258C16.2847 17.946 16.6573 17.4953 16.952 16.906C17.0213 16.854 17.082 16.854 17.134 16.906C17.2033 16.9407 17.2293 17.01 17.212 17.114C16.796 18.05 16.2413 18.7693 15.548 19.272C14.8547 19.7573 13.9273 20 12.766 20C11.7433 20 10.8073 19.8527 9.958 19.558C9.126 19.246 8.31133 18.9167 7.514 18.57C6.24867 19.5233 4.69733 20 2.86 20C2.16667 20 1.64667 19.8787 1.3 19.636C0.953333 19.3933 0.78 19.09 0.78 18.726C0.78 18.5007 0.858 18.258 1.014 17.998C1.18733 17.738 1.42133 17.4953 1.716 17.27C2.01067 17.0447 2.35733 16.854 2.756 16.698C3.172 16.542 3.63133 16.464 4.134 16.464C4.77533 16.464 5.39933 16.5507 6.006 16.724C6.63 16.88 7.26267 17.0793 7.904 17.322C8.19867 16.8367 8.48467 16.23 8.762 15.502C9.03933 14.774 9.31667 13.8813 9.594 12.824C9.99267 11.3333 10.4693 9.99867 11.024 8.82C11.5787 7.624 12.194 6.61867 12.87 5.804C13.5633 4.972 14.3 4.33933 15.08 3.906C15.8773 3.45533 16.7093 3.23 17.576 3.23ZM4.03 19.324C4.654 19.324 5.20867 19.2633 5.694 19.142C6.19667 19.0033 6.64733 18.7433 7.046 18.362C6.40467 18.0847 5.75467 17.842 5.096 17.634C4.43733 17.426 3.73533 17.322 2.99 17.322C2.19267 17.322 1.794 17.5907 1.794 18.128C1.794 18.4747 1.98467 18.7607 2.366 18.986C2.76467 19.2113 3.31933 19.324 4.03 19.324ZM19.4689 20C18.7409 20 18.3769 19.6013 18.3769 18.804C18.3769 18.5267 18.4029 18.206 18.4549 17.842C18.5243 17.478 18.6196 17.1053 18.7409 16.724C18.8796 16.3253 19.0356 15.9267 19.2089 15.528C19.3823 15.1293 19.5903 14.748 19.8329 14.384C19.6423 14.5053 19.4603 14.6353 19.2869 14.774C19.1136 14.8953 18.9576 15.0253 18.8189 15.164C18.7669 15.1987 18.7149 15.19 18.6629 15.138C18.6283 15.0687 18.6283 15.008 18.6629 14.956C18.9576 14.644 19.3736 14.3233 19.9109 13.994C20.4656 13.6647 20.9943 13.4047 21.4969 13.214C21.5836 13.214 21.6443 13.24 21.6789 13.292C21.7309 13.3267 21.7396 13.3787 21.7049 13.448C21.1503 14.176 20.6996 14.9647 20.3529 15.814C20.0236 16.6633 19.8589 17.4867 19.8589 18.284C19.8589 18.7867 20.0149 19.038 20.3269 19.038C20.5523 19.038 20.8296 18.8907 21.1589 18.596C21.4883 18.284 21.8349 17.8853 22.1989 17.4C22.5629 16.8973 22.9269 16.334 23.2909 15.71C23.6723 15.086 24.0189 14.4533 24.3309 13.812C24.3829 13.708 24.5303 13.604 24.7729 13.5C25.0329 13.396 25.2929 13.344 25.5529 13.344C25.8129 13.344 25.8909 13.4133 25.7869 13.552C25.5443 14.0027 25.3276 14.4273 25.1369 14.826C24.9636 15.2073 24.8163 15.5887 24.6949 15.97C24.5736 16.3513 24.4783 16.7413 24.4089 17.14C24.3569 17.5213 24.3309 17.946 24.3309 18.414C24.3309 18.9687 24.4783 19.246 24.7729 19.246C25.0676 19.246 25.3969 18.986 25.7609 18.466C25.8129 18.4313 25.8649 18.4313 25.9169 18.466C25.9689 18.5007 25.9863 18.5527 25.9689 18.622C25.6743 19.0727 25.3449 19.4193 24.9809 19.662C24.6343 19.8873 24.3136 20 24.0189 20C23.2909 20 22.9269 19.5753 22.9269 18.726C22.9269 17.842 23.0829 16.9667 23.3949 16.1C22.7363 17.296 22.0429 18.2493 21.3149 18.96C20.5869 19.6533 19.9716 20 19.4689 20ZM33.1197 18.31C33.1717 18.2753 33.2237 18.2753 33.2757 18.31C33.3277 18.3447 33.3451 18.3967 33.3277 18.466C33.0851 18.8473 32.7644 19.2027 32.3657 19.532C31.9671 19.844 31.5511 20 31.1177 20C30.6844 20 30.3117 19.8093 29.9997 19.428C29.6877 19.0293 29.4017 18.4053 29.1417 17.556C28.6911 18.3533 28.2317 18.96 27.7637 19.376C27.3131 19.792 26.8624 20 26.4117 20C26.1344 20 25.9957 19.818 25.9957 19.454C25.9957 18.9687 26.1431 18.4573 26.4377 17.92C26.4724 17.8853 26.5157 17.8853 26.5677 17.92C26.6197 17.9547 26.6371 17.998 26.6197 18.05C26.5157 18.31 26.4984 18.5267 26.5677 18.7C26.6544 18.8733 26.8017 18.96 27.0097 18.96C27.6337 18.96 28.3011 18.3533 29.0117 17.14C28.8904 16.7067 28.8124 16.308 28.7777 15.944C28.7431 15.5627 28.7171 15.2333 28.6997 14.956C28.6824 14.6787 28.6564 14.4707 28.6217 14.332C28.6044 14.176 28.5524 14.098 28.4657 14.098C28.3271 14.098 28.1884 14.202 28.0497 14.41C27.9111 14.6007 27.7984 14.8 27.7117 15.008C27.6771 15.06 27.6251 15.0773 27.5557 15.06C27.5037 15.0427 27.4864 15.008 27.5037 14.956C27.5384 14.8 27.6077 14.6353 27.7117 14.462C27.8157 14.2713 27.9371 14.098 28.0757 13.942C28.2317 13.7687 28.3964 13.63 28.5697 13.526C28.7604 13.4047 28.9597 13.344 29.1677 13.344C29.3584 13.344 29.4971 13.422 29.5837 13.578C29.6877 13.734 29.7657 13.9333 29.8177 14.176C29.8697 14.4187 29.9044 14.7047 29.9217 15.034C29.9564 15.3633 29.9997 15.6927 30.0517 16.022C30.4677 15.2593 30.9357 14.6267 31.4557 14.124C31.9931 13.604 32.5044 13.344 32.9897 13.344C33.2324 13.344 33.4317 13.422 33.5877 13.578C33.7437 13.7167 33.8217 13.9073 33.8217 14.15C33.8217 14.306 33.7611 14.514 33.6397 14.774C33.5357 15.034 33.4231 15.2593 33.3017 15.45C33.2497 15.4847 33.1977 15.4847 33.1457 15.45C33.1111 15.4153 33.0937 15.372 33.0937 15.32C33.2671 15.0427 33.3104 14.8 33.2237 14.592C33.1544 14.384 32.9897 14.28 32.7297 14.28C32.2791 14.28 31.8457 14.4447 31.4297 14.774C31.0311 15.1033 30.6064 15.684 30.1557 16.516C30.3637 17.348 30.6237 18.0153 30.9357 18.518C31.2651 19.0207 31.5944 19.272 31.9237 19.272C32.1491 19.272 32.3571 19.1767 32.5477 18.986C32.7557 18.7953 32.9464 18.57 33.1197 18.31ZM39.703 14.644C39.703 15.632 38.3943 16.308 35.777 16.672C35.7597 16.8453 35.7423 17.0187 35.725 17.192C35.725 17.3653 35.725 17.5473 35.725 17.738C35.725 18.1887 35.829 18.5353 36.037 18.778C36.245 19.0207 36.5743 19.142 37.025 19.142C37.3543 19.142 37.6923 19.0467 38.039 18.856C38.3857 18.6653 38.663 18.4227 38.871 18.128C38.9403 18.0933 38.9923 18.1107 39.027 18.18C39.0617 18.232 39.0703 18.2927 39.053 18.362C38.7063 18.8127 38.2643 19.2027 37.727 19.532C37.207 19.844 36.6437 20 36.037 20C35.4303 20 34.9883 19.8527 34.711 19.558C34.451 19.246 34.321 18.8127 34.321 18.258C34.321 17.7207 34.4337 17.166 34.659 16.594C34.8843 16.0047 35.1703 15.4673 35.517 14.982C35.881 14.4967 36.2883 14.1067 36.739 13.812C37.207 13.5 37.675 13.344 38.143 13.344C38.611 13.344 38.9837 13.4827 39.261 13.76C39.5557 14.02 39.703 14.3147 39.703 14.644ZM37.441 14.02C37.0423 14.02 36.6957 14.2107 36.401 14.592C36.1237 14.956 35.933 15.528 35.829 16.308C36.661 16.2213 37.2763 16.0653 37.675 15.84C38.0737 15.5973 38.273 15.3027 38.273 14.956C38.273 14.696 38.195 14.4793 38.039 14.306C37.883 14.1153 37.6837 14.02 37.441 14.02ZM70.1671 4.79C70.2191 4.82467 70.2451 4.87667 70.2451 4.946C70.2451 4.998 70.1931 5.076 70.0891 5.18C69.5171 5.804 69.0058 6.52333 68.5551 7.338C68.1044 8.13533 67.7231 9.01067 67.4111 9.964C67.0991 10.9173 66.8564 11.9227 66.6831 12.98C66.5098 14.0373 66.4231 15.1207 66.4231 16.23C66.4231 17.062 66.5184 17.712 66.7091 18.18C66.9171 18.6307 67.2724 18.856 67.7751 18.856C68.4684 18.856 69.1271 18.3707 69.7511 17.4C69.8031 17.3653 69.8551 17.3653 69.9071 17.4C69.9591 17.4347 69.9764 17.4867 69.9591 17.556C69.5084 18.284 69.0058 18.8733 68.4511 19.324C67.9138 19.7747 67.4111 20 66.9431 20C66.2498 20 65.7211 19.7313 65.3571 19.194C65.0104 18.6567 64.8371 17.894 64.8371 16.906C64.8371 15.5193 64.9931 14.1067 65.3051 12.668C64.4904 12.668 63.6844 12.6767 62.8871 12.694C62.1071 12.7113 61.3444 12.7373 60.5991 12.772C60.0271 13.3787 59.4724 13.9507 58.9351 14.488C58.4151 15.0253 57.9038 15.5193 57.4011 15.97C56.0144 17.2353 54.5844 18.2233 53.1111 18.934C51.6551 19.6447 50.0518 20 48.3011 20C47.3651 20 46.6111 19.792 46.0391 19.376C45.4844 18.96 45.1118 18.4313 44.9211 17.79C44.7478 17.1487 44.7564 16.4467 44.9471 15.684C45.1378 14.9213 45.5191 14.1847 46.0911 13.474C46.1431 13.4393 46.2038 13.448 46.2731 13.5C46.3424 13.5347 46.3684 13.6127 46.3511 13.734C45.9524 14.1673 45.7271 14.67 45.6751 15.242C45.6404 15.7967 45.7618 16.3253 46.0391 16.828C46.3338 17.3133 46.7844 17.7293 47.3911 18.076C47.9978 18.4053 48.7604 18.57 49.6791 18.57C51.1524 18.57 52.5304 18.2667 53.8131 17.66C55.1131 17.0533 56.3351 16.23 57.4791 15.19C57.8778 14.8433 58.2764 14.4707 58.6751 14.072C59.0738 13.6733 59.4898 13.2573 59.9231 12.824C59.3164 12.8587 58.7444 12.902 58.2071 12.954C57.6698 12.9887 57.1671 13.0407 56.6991 13.11C56.6124 13.0927 56.5951 13.0493 56.6471 12.98C56.6991 12.9107 56.7771 12.8413 56.8811 12.772C56.9851 12.6853 57.1064 12.616 57.2451 12.564C57.4011 12.4947 57.5484 12.4513 57.6871 12.434C57.9124 12.4167 58.2591 12.408 58.7271 12.408C59.2124 12.3907 59.7584 12.3733 60.3651 12.356C61.3358 11.3507 62.4104 10.2673 63.5891 9.106C64.7851 7.92733 66.1978 6.69667 67.8271 5.414C66.6658 5.03267 65.4611 4.72067 64.2131 4.478C62.9824 4.218 61.7951 4.088 60.6511 4.088C59.3511 4.088 58.2851 4.452 57.4531 5.18C56.6211 5.89067 56.1098 7.01733 55.9191 8.56C55.8844 8.64667 55.8324 8.68133 55.7631 8.664C55.7111 8.64667 55.6764 8.59467 55.6591 8.508C55.8671 6.80933 56.4998 5.50933 57.5571 4.608C58.6144 3.70667 59.9838 3.256 61.6651 3.256C62.3758 3.256 63.1211 3.308 63.9011 3.412C64.6811 3.49867 65.4438 3.62 66.1891 3.776C66.9518 3.91467 67.6711 4.07933 68.3471 4.27C69.0404 4.44333 69.6471 4.61667 70.1671 4.79ZM65.3831 12.33C65.6604 11.082 66.0504 9.86867 66.5531 8.69C67.0558 7.51133 67.6711 6.428 68.3991 5.44C66.8738 6.67067 65.5131 7.86667 64.3171 9.028C63.1211 10.1893 62.0204 11.2987 61.0151 12.356C61.8471 12.3387 62.6618 12.33 63.4591 12.33C64.2738 12.33 64.9151 12.33 65.3831 12.33ZM78.166 18.18C78.2006 18.1453 78.244 18.154 78.296 18.206C78.348 18.2407 78.3653 18.2927 78.348 18.362C78.036 18.7953 77.672 19.1767 77.256 19.506C76.8573 19.8353 76.4586 20 76.06 20C75.7653 20 75.5313 19.9047 75.358 19.714C75.202 19.5233 75.124 19.272 75.124 18.96C75.124 18.3533 75.228 17.6947 75.436 16.984C75.6613 16.2733 75.956 15.554 76.32 14.826C76.372 14.7047 76.398 14.5747 76.398 14.436C76.398 14.2627 76.32 14.176 76.164 14.176C75.5226 14.176 74.812 14.618 74.032 15.502C73.252 16.3687 72.5326 17.7553 71.874 19.662C71.8566 19.714 71.796 19.766 71.692 19.818C71.6053 19.8527 71.5013 19.8873 71.38 19.922C71.2586 19.9393 71.1373 19.9567 71.016 19.974C70.8946 19.9913 70.7993 20 70.73 20C70.6433 20 70.574 19.9827 70.522 19.948C70.4873 19.9133 70.4873 19.8527 70.522 19.766C70.8166 19.0207 71.1113 18.206 71.406 17.322C71.718 16.4207 71.9866 15.5193 72.212 14.618C72.264 14.4447 72.2726 14.3233 72.238 14.254C72.2033 14.1673 72.1426 14.124 72.056 14.124C71.8653 14.124 71.6833 14.2107 71.51 14.384C71.3366 14.54 71.1806 14.7133 71.042 14.904C70.99 14.9387 70.938 14.93 70.886 14.878C70.8513 14.826 70.8426 14.774 70.86 14.722C70.9466 14.6007 71.0593 14.462 71.198 14.306C71.354 14.15 71.5273 14.0027 71.718 13.864C71.9086 13.708 72.108 13.5867 72.316 13.5C72.524 13.396 72.732 13.344 72.94 13.344C73.2346 13.344 73.4253 13.4393 73.512 13.63C73.616 13.8033 73.642 14.02 73.59 14.28C73.5033 14.6613 73.408 15.0253 73.304 15.372C73.2173 15.7013 73.1046 16.074 72.966 16.49C73.174 16.1087 73.4253 15.736 73.72 15.372C74.032 14.9907 74.37 14.6527 74.734 14.358C75.1153 14.046 75.5226 13.8033 75.956 13.63C76.3893 13.4393 76.8486 13.344 77.334 13.344C77.542 13.344 77.698 13.396 77.802 13.5C77.9233 13.604 77.984 13.7253 77.984 13.864C77.984 14.1067 77.9233 14.3233 77.802 14.514C77.438 15.1727 77.126 15.8573 76.866 16.568C76.6233 17.2613 76.502 17.8853 76.502 18.44C76.502 18.8907 76.6493 19.116 76.944 19.116C77.1346 19.116 77.3253 19.038 77.516 18.882C77.7066 18.726 77.9233 18.492 78.166 18.18ZM82.5149 12.226C82.4629 12.278 82.4022 12.278 82.3329 12.226C82.2809 12.174 82.2375 12.1047 82.2029 12.018C82.1682 11.914 82.1509 11.81 82.1509 11.706C82.1509 11.5847 82.1769 11.4807 82.2289 11.394C82.4195 11.1513 82.6969 10.848 83.0609 10.484C83.4422 10.1027 83.8322 9.782 84.2309 9.522C84.2655 9.50467 84.3089 9.522 84.3609 9.574C84.4129 9.60867 84.4302 9.64333 84.4129 9.678C84.0489 10.0073 83.7022 10.406 83.3729 10.874C83.0435 11.3247 82.7575 11.7753 82.5149 12.226ZM79.7329 15.164C79.6809 15.1987 79.6375 15.19 79.6029 15.138C79.5682 15.0687 79.5595 15.008 79.5769 14.956C80.2182 14.436 81.1109 13.8987 82.2549 13.344C82.3935 13.344 82.4629 13.422 82.4629 13.578C82.2375 13.9767 82.0122 14.41 81.7869 14.878C81.5789 15.346 81.3882 15.814 81.2149 16.282C81.0589 16.7327 80.9289 17.1747 80.8249 17.608C80.7209 18.024 80.6689 18.3707 80.6689 18.648C80.6689 18.9947 80.7902 19.168 81.0329 19.168C81.2235 19.168 81.4055 19.09 81.5789 18.934C81.7695 18.7607 81.9862 18.544 82.2289 18.284C82.2635 18.2493 82.3069 18.258 82.3589 18.31C82.4109 18.3447 82.4195 18.4053 82.3849 18.492C82.0035 18.9427 81.6222 19.3067 81.2409 19.584C80.8769 19.8613 80.5215 20 80.1749 20C79.5682 20 79.2649 19.714 79.2649 19.142C79.2649 18.83 79.3082 18.466 79.3949 18.05C79.4989 17.6167 79.6289 17.1833 79.7849 16.75C79.9582 16.2993 80.1402 15.866 80.3309 15.45C80.5389 15.0167 80.7469 14.644 80.9549 14.332C80.7642 14.436 80.5475 14.566 80.3049 14.722C80.0795 14.878 79.8889 15.0253 79.7329 15.164ZM92.7853 14.54C92.7853 14.176 92.6553 13.994 92.3953 13.994C91.8753 13.994 91.2599 14.4793 90.5493 15.45C89.8386 16.4033 89.1799 17.7727 88.5733 19.558C88.5386 19.662 88.3913 19.766 88.1313 19.87C87.8886 19.9567 87.6546 20 87.4293 20C87.2213 20 87.1433 19.922 87.1953 19.766C87.2993 19.454 87.4379 19.064 87.6113 18.596C87.8019 18.128 87.9753 17.6513 88.1313 17.166C88.3046 16.6633 88.4519 16.1953 88.5733 15.762C88.6946 15.3113 88.7553 14.9647 88.7553 14.722C88.7553 14.254 88.6079 14.02 88.3133 14.02C87.8626 14.02 87.2906 14.488 86.5973 15.424C85.9213 16.3427 85.2626 17.7207 84.6213 19.558C84.5866 19.662 84.4479 19.766 84.2053 19.87C83.9626 19.9567 83.7459 20 83.5553 20C83.4686 20 83.3993 19.9827 83.3473 19.948C83.2953 19.9133 83.2866 19.8527 83.3213 19.766C83.4599 19.3847 83.6073 18.9687 83.7633 18.518C83.9193 18.05 84.0753 17.582 84.2313 17.114C84.3873 16.646 84.5259 16.1867 84.6473 15.736C84.7859 15.2853 84.9073 14.8607 85.0113 14.462C85.0633 14.15 85.0113 13.994 84.8553 13.994C84.7166 13.994 84.5519 14.0893 84.3613 14.28C84.1706 14.4707 83.9799 14.696 83.7893 14.956C83.7373 14.9907 83.6853 14.9907 83.6333 14.956C83.5813 14.904 83.5726 14.852 83.6073 14.8C83.8673 14.4013 84.1793 14.0633 84.5433 13.786C84.9073 13.4913 85.2973 13.344 85.7133 13.344C85.9906 13.344 86.1726 13.4307 86.2593 13.604C86.3633 13.7773 86.3893 13.9853 86.3373 14.228C86.2679 14.6093 86.1986 14.93 86.1293 15.19C86.0599 15.45 85.9646 15.7447 85.8433 16.074C86.2939 15.2767 86.7879 14.6267 87.3253 14.124C87.8799 13.604 88.4693 13.344 89.0933 13.344C89.4053 13.344 89.6393 13.4307 89.7953 13.604C89.9686 13.7773 90.0553 13.9853 90.0553 14.228C90.0553 14.904 89.9339 15.5887 89.6913 16.282C90.2459 15.3287 90.7833 14.6007 91.3033 14.098C91.8406 13.5953 92.4819 13.344 93.2273 13.344C93.5739 13.344 93.8166 13.4393 93.9553 13.63C94.1113 13.8033 94.1893 13.9853 94.1893 14.176C94.1893 14.4707 94.1199 14.8 93.9813 15.164C93.8599 15.5107 93.7126 15.8833 93.5393 16.282C93.3833 16.6633 93.2359 17.0533 93.0973 17.452C92.9759 17.8333 92.9153 18.206 92.9153 18.57C92.9153 19.0033 93.0539 19.22 93.3313 19.22C93.6086 19.22 93.9813 18.934 94.4493 18.362C94.5013 18.3273 94.5446 18.336 94.5793 18.388C94.6313 18.44 94.6399 18.5007 94.6053 18.57C94.2586 19.0033 93.9033 19.35 93.5393 19.61C93.1753 19.87 92.8199 20 92.4733 20C91.9013 20 91.6153 19.6707 91.6153 19.012C91.6153 18.596 91.6759 18.18 91.7973 17.764C91.9186 17.3307 92.0486 16.9233 92.1873 16.542C92.3433 16.1433 92.4819 15.7707 92.6033 15.424C92.7246 15.0773 92.7853 14.7827 92.7853 14.54ZM102.611 18.362C102.646 18.3273 102.689 18.3273 102.741 18.362C102.793 18.3967 102.81 18.4487 102.793 18.518C102.481 18.9687 102.134 19.3327 101.753 19.61C101.372 19.87 101.008 20 100.661 20C100.262 20 100.002 19.7227 99.881 19.168C99.777 18.596 99.8377 17.92 100.063 17.14C99.595 17.8853 99.0837 18.5267 98.529 19.064C97.9917 19.584 97.4197 19.896 96.813 20C96.397 20 96.0764 19.8093 95.851 19.428C95.6257 19.0467 95.513 18.6047 95.513 18.102C95.513 17.53 95.6517 16.9667 95.929 16.412C96.2064 15.84 96.5704 15.3287 97.021 14.878C97.489 14.4273 98.0004 14.0633 98.555 13.786C99.127 13.4913 99.699 13.344 100.271 13.344C100.878 13.344 101.354 13.4913 101.701 13.786C101.874 13.6647 102.091 13.5607 102.351 13.474C102.628 13.3873 102.871 13.344 103.079 13.344C103.148 13.344 103.183 13.3873 103.183 13.474C102.784 13.9593 102.438 14.4967 102.143 15.086C101.866 15.658 101.649 16.2127 101.493 16.75C101.337 17.27 101.242 17.738 101.207 18.154C101.172 18.57 101.207 18.856 101.311 19.012C101.398 19.116 101.545 19.1507 101.753 19.116C101.961 19.064 102.247 18.8127 102.611 18.362ZM97.619 19.038C97.827 19.038 98.0784 18.908 98.373 18.648C98.685 18.388 99.0057 18.0413 99.335 17.608C99.6644 17.1747 99.985 16.6893 100.297 16.152C100.626 15.6147 100.912 15.0687 101.155 14.514C101.086 14.2887 100.921 14.1067 100.661 13.968C100.418 13.8293 100.132 13.76 99.803 13.76C99.4044 13.76 99.0317 13.864 98.685 14.072C98.3384 14.2627 98.035 14.54 97.775 14.904C97.5324 15.2507 97.333 15.6753 97.177 16.178C97.0384 16.6633 96.969 17.2007 96.969 17.79C96.969 18.1713 97.0297 18.4747 97.151 18.7C97.2897 18.9253 97.4457 19.038 97.619 19.038ZM115.121 0.681999C115.381 0.681999 115.589 0.751333 115.745 0.89C115.918 1.01133 116.031 1.18467 116.083 1.41C116.152 1.618 116.161 1.86067 116.109 2.138C116.074 2.41533 115.979 2.69267 115.823 2.97C115.788 3.00467 115.745 3.00467 115.693 2.97C115.641 2.93533 115.606 2.892 115.589 2.84C115.624 2.632 115.546 2.45867 115.355 2.32C115.182 2.18133 114.904 2.112 114.523 2.112C113.812 2.112 113.093 2.38067 112.365 2.918C111.654 3.438 110.961 4.13133 110.285 4.998C109.609 5.86467 108.976 6.86133 108.387 7.988C107.798 9.11467 107.286 10.276 106.853 11.472C106.42 12.668 106.073 13.8553 105.813 15.034C105.57 16.2127 105.449 17.2873 105.449 18.258C105.449 18.778 105.596 19.038 105.891 19.038C106.099 19.038 106.298 18.9513 106.489 18.778C106.697 18.6047 106.931 18.3447 107.191 17.998C107.243 17.9633 107.286 17.972 107.321 18.024C107.373 18.0587 107.39 18.1107 107.373 18.18C107.026 18.7 106.619 19.1333 106.151 19.48C105.683 19.8267 105.258 20 104.877 20C104.548 20 104.314 19.9047 104.175 19.714C104.054 19.5233 103.993 19.2807 103.993 18.986C103.993 18.1713 104.166 17.1573 104.513 15.944C104.86 14.7133 105.319 13.422 105.891 12.07C106.48 10.7007 107.156 9.34 107.919 7.988C108.682 6.636 109.47 5.42267 110.285 4.348C111.117 3.256 111.949 2.372 112.781 1.696C113.613 1.02 114.393 0.681999 115.121 0.681999ZM112.333 16.594C112.333 15.8487 112.524 15.216 112.905 14.696C113.304 14.176 113.841 13.7773 114.517 13.5C114.604 13.4653 114.665 13.4913 114.699 13.578C114.734 13.6647 114.725 13.7427 114.673 13.812C114.361 13.9853 114.11 14.254 113.919 14.618C113.746 14.982 113.659 15.424 113.659 15.944C113.659 17.0013 114.049 17.8333 114.829 18.44C115.609 19.0467 116.623 19.35 117.871 19.35C119.501 19.35 120.662 19.0293 121.355 18.388C122.066 17.7467 122.421 16.906 122.421 15.866C122.421 14.8953 122.222 14.046 121.823 13.318C121.425 12.5727 120.983 11.8793 120.497 11.238C120.029 10.5793 119.596 9.92067 119.197 9.262C118.799 8.60333 118.599 7.858 118.599 7.026C118.599 6.54067 118.703 6.07267 118.911 5.622C119.137 5.17133 119.44 4.77267 119.821 4.426C120.22 4.062 120.688 3.776 121.225 3.568C121.763 3.36 122.352 3.256 122.993 3.256C123.877 3.256 124.571 3.44667 125.073 3.828C125.593 4.192 125.853 4.634 125.853 5.154C125.853 5.44867 125.723 5.81267 125.463 6.246C125.221 6.662 124.969 7.026 124.709 7.338C124.64 7.37267 124.579 7.364 124.527 7.312C124.475 7.26 124.458 7.19933 124.475 7.13C124.562 6.99133 124.631 6.82667 124.683 6.636C124.753 6.428 124.787 6.20267 124.787 5.96C124.787 5.68267 124.727 5.42267 124.605 5.18C124.484 4.92 124.311 4.70333 124.085 4.53C123.86 4.33933 123.6 4.192 123.305 4.088C123.011 3.96667 122.699 3.906 122.369 3.906C121.503 3.906 120.87 4.114 120.471 4.53C120.073 4.946 119.873 5.48333 119.873 6.142C119.873 6.662 119.969 7.156 120.159 7.624C120.367 8.07467 120.619 8.534 120.913 9.002C121.208 9.45267 121.52 9.912 121.849 10.38C122.196 10.8307 122.517 11.3073 122.811 11.81C123.106 12.2953 123.349 12.8153 123.539 13.37C123.747 13.9073 123.851 14.4967 123.851 15.138C123.851 15.814 123.678 16.4467 123.331 17.036C123.002 17.6253 122.543 18.1453 121.953 18.596C121.364 19.0293 120.679 19.376 119.899 19.636C119.119 19.8787 118.279 20 117.377 20C115.731 20 114.474 19.6793 113.607 19.038C112.758 18.3967 112.333 17.582 112.333 16.594ZM130.499 13.344C130.881 13.344 131.184 13.5347 131.409 13.916C131.652 14.28 131.773 14.7133 131.773 15.216C131.773 15.9267 131.626 16.5767 131.331 17.166C131.054 17.738 130.681 18.2407 130.213 18.674C129.745 19.09 129.208 19.4193 128.601 19.662C127.995 19.8873 127.379 20 126.755 20C126.461 20 126.209 19.9653 126.001 19.896C125.707 20.7453 125.438 21.6553 125.195 22.626C124.97 23.5967 124.857 24.498 124.857 25.33C124.857 25.7287 125.048 25.8847 125.429 25.798C125.568 25.7807 125.698 25.746 125.819 25.694C125.958 25.642 126.088 25.5727 126.209 25.486C126.279 25.486 126.313 25.5207 126.313 25.59C126.331 25.6593 126.322 25.7287 126.287 25.798C126.183 25.85 126.027 25.902 125.819 25.954C125.629 26.0233 125.421 26.084 125.195 26.136C124.97 26.2053 124.745 26.2573 124.519 26.292C124.294 26.3267 124.103 26.344 123.947 26.344C123.809 26.344 123.696 26.3093 123.609 26.24C123.523 26.1707 123.479 26.0667 123.479 25.928C123.479 25.044 123.627 24.0127 123.921 22.834C124.199 21.6727 124.563 20.468 125.013 19.22C124.909 19.0813 124.849 18.9687 124.831 18.882C124.814 18.8127 124.944 18.7347 125.221 18.648C125.447 18.024 125.689 17.4 125.949 16.776C126.209 16.152 126.469 15.5367 126.729 14.93C127.059 14.2193 127.206 13.7773 127.171 13.604C127.154 13.4307 127.05 13.396 126.859 13.5C126.599 13.6387 126.313 13.8813 126.001 14.228C125.967 14.2627 125.923 14.254 125.871 14.202C125.837 14.1327 125.828 14.0807 125.845 14.046C125.967 13.9073 126.123 13.76 126.313 13.604C126.504 13.4307 126.703 13.2747 126.911 13.136C127.137 12.9973 127.353 12.8847 127.561 12.798C127.769 12.694 127.951 12.642 128.107 12.642C128.298 12.642 128.419 12.7287 128.471 12.902C128.541 13.058 128.532 13.2313 128.445 13.422C128.22 14.0287 127.925 14.7133 127.561 15.476C127.735 15.2333 127.934 14.9907 128.159 14.748C128.385 14.488 128.619 14.254 128.861 14.046C129.121 13.838 129.39 13.6733 129.667 13.552C129.945 13.4133 130.222 13.344 130.499 13.344ZM127.405 19.48C127.821 19.48 128.211 19.402 128.575 19.246C128.939 19.0727 129.251 18.83 129.511 18.518C129.789 18.1887 130.005 17.79 130.161 17.322C130.335 16.8367 130.421 16.282 130.421 15.658C130.421 15.242 130.343 14.904 130.187 14.644C130.031 14.384 129.806 14.254 129.511 14.254C129.113 14.254 128.636 14.6093 128.081 15.32C127.527 16.0307 127.015 17.0273 126.547 18.31C126.495 18.4487 126.443 18.596 126.391 18.752C126.339 18.8907 126.287 19.038 126.235 19.194C126.513 19.3847 126.903 19.48 127.405 19.48ZM139.935 18.362C139.97 18.3273 140.013 18.3273 140.065 18.362C140.117 18.3967 140.135 18.4487 140.117 18.518C139.805 18.9687 139.459 19.3327 139.077 19.61C138.696 19.87 138.332 20 137.985 20C137.587 20 137.327 19.7227 137.205 19.168C137.101 18.596 137.162 17.92 137.387 17.14C136.919 17.8853 136.408 18.5267 135.853 19.064C135.316 19.584 134.744 19.896 134.137 20C133.721 20 133.401 19.8093 133.175 19.428C132.95 19.0467 132.837 18.6047 132.837 18.102C132.837 17.53 132.976 16.9667 133.253 16.412C133.531 15.84 133.895 15.3287 134.345 14.878C134.813 14.4273 135.325 14.0633 135.879 13.786C136.451 13.4913 137.023 13.344 137.595 13.344C138.202 13.344 138.679 13.4913 139.025 13.786C139.199 13.6647 139.415 13.5607 139.675 13.474C139.953 13.3873 140.195 13.344 140.403 13.344C140.473 13.344 140.507 13.3873 140.507 13.474C140.109 13.9593 139.762 14.4967 139.467 15.086C139.19 15.658 138.973 16.2127 138.817 16.75C138.661 17.27 138.566 17.738 138.531 18.154C138.497 18.57 138.531 18.856 138.635 19.012C138.722 19.116 138.869 19.1507 139.077 19.116C139.285 19.064 139.571 18.8127 139.935 18.362ZM134.943 19.038C135.151 19.038 135.403 18.908 135.697 18.648C136.009 18.388 136.33 18.0413 136.659 17.608C136.989 17.1747 137.309 16.6893 137.621 16.152C137.951 15.6147 138.237 15.0687 138.479 14.514C138.41 14.2887 138.245 14.1067 137.985 13.968C137.743 13.8293 137.457 13.76 137.127 13.76C136.729 13.76 136.356 13.864 136.009 14.072C135.663 14.2627 135.359 14.54 135.099 14.904C134.857 15.2507 134.657 15.6753 134.501 16.178C134.363 16.6633 134.293 17.2007 134.293 17.79C134.293 18.1713 134.354 18.4747 134.475 18.7C134.614 18.9253 134.77 19.038 134.943 19.038Z" fill="#4C4C4B"/>
</svg>
