<svg width="40" height="40" viewBox="0 0 40 40" fill="none" xmlns="http://www.w3.org/2000/svg">
<path d="M10 3.33333L5 10V33.3333C5 34.2174 5.35119 35.0652 5.97631 35.6904C6.60143 36.3155 7.44928 36.6667 8.33333 36.6667H31.6667C32.5507 36.6667 33.3986 36.3155 34.0237 35.6904C34.6488 35.0652 35 34.2174 35 33.3333V10L30 3.33333H10Z" stroke="#4C4C4B" stroke-width="2" stroke-linecap="round" stroke-linejoin="round"/>
<path d="M5 10H35" stroke="#4C4C4B" stroke-width="2" stroke-linecap="round" stroke-linejoin="round"/>
<path d="M26.6666 16.6667C26.6666 18.4348 25.9642 20.1305 24.714 21.3807C23.4637 22.631 21.768 23.3333 19.9999 23.3333C18.2318 23.3333 16.5361 22.631 15.2859 21.3807C14.0356 20.1305 13.3333 18.4348 13.3333 16.6667" stroke="#4C4C4B" stroke-width="2" stroke-linecap="round" stroke-linejoin="round"/>
</svg>
